<svg width="888" height="130" viewBox="0 0 888 130" xmlns="http://www.w3.org/2000/svg">
  <title>
    React Intersection Observer Logo
  </title>
  <defs>
    <linearGradient x1="13.2263485%" y1="13.0966785%" x2="100.024032%" y2="99.0434052%" id="a">
      <stop stop-color="#FFA200" offset="0%"/>
      <stop stop-color="#FFF" stop-opacity="0" offset="100%"/>
    </linearGradient>
  </defs>
  <g fill="none" fill-rule="evenodd">
    <g transform="translate(126 15)">
      <rect fill="#FFC14D" width="100" height="100" rx="12"/>
      <rect fill="url(#a)" style="mix-blend-mode:multiply" transform="rotate(-180 50 50)" width="100" height="100" rx="12"/>
    </g>
    <path d="M260.416992 67.9208984h-7.013672V80h-3.958008V50.140625h9.884766c3.363298 0 5.950675.7656173 7.762207 2.296875 1.811533 1.5312577 2.717285 3.759751 2.717285 6.6855469 0 1.8593843-.502436 3.4794853-1.507324 4.8603515-1.004888 1.3808663-2.402823 2.4130826-4.193848 3.0966797l7.013672 12.6738281V80h-4.224609l-6.480469-12.0791016zm-7.013672-3.2197265h6.049805c1.955088 0 3.510248-.5058543 4.665527-1.5175781 1.15528-1.0117239 1.73291-2.3652259 1.73291-4.0605469 0-1.8457124-.550287-3.2607373-1.650878-4.2451172-1.100592-.9843799-2.689931-1.4833984-4.768067-1.4970703h-6.029297v11.3203125zm30.536133 15.7089843c-3.007827 0-5.455069-.987783-7.341797-2.9633789-1.886728-1.9755958-2.830078-4.6176592-2.830078-7.9262695v-.6972656c0-2.2011829.420406-4.1664953 1.261231-5.8959961.840824-1.7295008 2.016594-3.0830029 3.527343-4.0605469 1.51075-.9775439 3.147941-1.4663086 4.911621-1.4663086 2.88478 0 5.126946.9501858 6.726563 2.850586 1.599617 1.9004001 2.399414 4.621076 2.399414 8.1621093v1.5791016h-15.032227c.054688 2.1875109.693842 3.9545831 1.917481 5.3012695 1.223639 1.3466865 2.778799 2.0200196 4.665527 2.0200196 1.339851 0 2.474605-.2734348 3.404297-.8203125.929692-.5468778 1.743161-1.2714799 2.44043-2.1738282l2.317383 1.8046875c-1.859385 2.8574362-4.648419 4.2861328-8.367188 4.2861328zm-.47168-19.8925781c-1.531257 0-2.816401.5571234-3.855468 1.6713867-1.039068 1.1142634-1.68164 2.6762595-1.927735 4.6860352h11.115235v-.2871094c-.109376-1.927744-.628902-3.4213814-1.558594-4.480957-.929692-1.0595756-2.187492-1.5893555-3.773438-1.5893555zM310.681641 80c-.218751-.4375022-.396484-1.2167913-.533203-2.3378906-1.763681 1.8320404-3.869129 2.7480468-6.316407 2.7480468-2.187511 0-3.981926-.6186461-5.383301-1.855957-1.401374-1.2373109-2.10205-2.8061428-2.10205-4.706543 0-2.3105584.878409-4.104974 2.635254-5.3833007 1.756844-1.2783267 4.228011-1.9174805 7.413574-1.9174805h3.691406v-1.7431641c0-1.3261785-.39648-2.3823203-1.189453-3.168457-.792973-.7861367-1.961906-1.1791992-3.506836-1.1791992-1.353522 0-2.488277.3417934-3.404297 1.0253906-.91602.6835972-1.374023 1.5107373-1.374023 2.4814453h-3.814453c0-1.1074274.393062-2.1772409 1.179199-3.2094726.786137-1.0322318 1.852532-1.8491181 3.199219-2.4506836 1.346686-.6015655 2.826652-.9023438 4.439941-.9023438 2.556653 0 4.559563.6391538 6.008789 1.9174805 1.449226 1.2783267 2.201172 3.038563 2.255859 5.2807617v10.2128906c0 2.0371196.259763 3.6572206.779297 4.8603516V80h-3.978515zm-6.295899-2.8916016c1.189459 0 2.317378-.3076141 3.383789-.9228515 1.066412-.6152375 1.838865-1.4150342 2.317383-2.3994141v-4.5527344h-2.973633c-4.64846 0-6.972656 1.360338-6.972656 4.0810547 0 1.1894591.39648 2.1191373 1.189453 2.7890625.792973.6699252 1.811517 1.0048828 3.055664 1.0048828zm24.342774.2050782c1.353522 0 2.536127-.4101522 3.547851-1.2304688s1.572265-1.845697 1.681641-3.0761719h3.588867c-.06836 1.2714908-.505855 2.4814396-1.3125 3.6298829-.806645 1.1484432-1.883294 2.0644497-3.22998 2.7480468-1.346687.6835972-2.771966 1.0253906-4.275879 1.0253906-3.0215 0-5.424308-1.0082906-7.208496-3.0249023-1.784189-2.0166116-2.67627-4.7748848-2.67627-8.2749023v-.6357422c0-2.1601671.39648-4.0810463 1.189453-5.7626953.792973-1.6816491 1.931145-2.9873001 3.414551-3.9169922 1.483406-.9296922 3.236806-1.3945313 5.260254-1.3945313 2.488294 0 4.556144.7451098 6.203613 2.2353516s2.525878 3.4247928 2.635254 5.8037109h-3.588867c-.109376-1.435554-.652827-2.6147415-1.630371-3.5375976-.977544-.9228562-2.184075-1.3842774-3.619629-1.3842774-1.927744 0-3.421382.6938407-4.480957 2.081543-1.059576 1.3877022-1.589356 3.3940298-1.589356 6.019043v.7177734c0 2.5566534.526362 4.5253837 1.579102 5.90625s2.556631 2.0712891 4.511719 2.0712891zM346.959961 52.4375v5.3730469h4.142578v2.9326172h-4.142578v13.7607421c0 .8886764.184568 1.5551736.553711 1.9995118.369142.4443381.998042.6665039 1.886719.6665039.437502 0 1.039058-.0820305 1.804687-.2460938V80c-.998052.2734389-1.968745.4101562-2.912109.4101562-1.695321 0-2.973629-.5126901-3.834961-1.5380859-.861333-1.0253957-1.291992-2.4814359-1.291992-4.3681641V60.7431641h-4.040039v-2.9326172h4.040039V52.4375h3.793945zM370.749023 80h-3.9375V50.140625h3.9375V80zm10.192383-22.1894531l.123047 2.7890625c1.695321-2.1328232 3.910143-3.1992188 6.644531-3.1992188 4.689477 0 7.054688 2.6454814 7.095704 7.9365235V80h-3.793946V65.3164062c-.013672-1.5996173-.379391-2.7822227-1.097168-3.5478515-.717777-.7656288-1.835441-1.1484375-3.353027-1.1484375-1.230475 0-2.310542.3281217-3.240235.984375-.929692.6562533-1.654294 1.5175728-2.173828 2.5839844V80h-3.793945V57.8105469h3.588867zM405.673828 52.4375v5.3730469h4.142578v2.9326172h-4.142578v13.7607421c0 .8886764.184569 1.5551736.553711 1.9995118.369143.4443381.998042.6665039 1.886719.6665039.437502 0 1.039058-.0820305 1.804687-.2460938V80c-.998052.2734389-1.968745.4101562-2.912109.4101562-1.695321 0-2.973629-.5126901-3.834961-1.5380859-.861332-1.0253957-1.291992-2.4814359-1.291992-4.3681641V60.7431641h-4.040039v-2.9326172h4.040039V52.4375h3.793945zm17.780274 27.9726562c-3.007828 0-5.455069-.987783-7.341797-2.9633789-1.886728-1.9755958-2.830078-4.6176592-2.830078-7.9262695v-.6972656c0-2.2011829.420406-4.1664953 1.26123-5.8959961.840825-1.7295008 2.016594-3.0830029 3.527344-4.0605469 1.51075-.9775439 3.14794-1.4663086 4.911621-1.4663086 2.88478 0 5.126945.9501858 6.726562 2.850586 1.599618 1.9004001 2.399414 4.621076 2.399414 8.1621093v1.5791016h-15.032226c.054688 2.1875109.693841 3.9545831 1.91748 5.3012695 1.223639 1.3466865 2.7788 2.0200196 4.665528 2.0200196 1.33985 0 2.474604-.2734348 3.404297-.8203125.929692-.5468778 1.74316-1.2714799 2.440429-2.1738282l2.317383 1.8046875c-1.859384 2.8574362-4.648419 4.2861328-8.367187 4.2861328zm-.47168-19.8925781c-1.531258 0-2.816401.5571234-3.855469 1.6713867-1.039068 1.1142634-1.681639 2.6762595-1.927734 4.6860352h11.115234v-.2871094c-.109375-1.927744-.628901-3.4213814-1.558594-4.480957-.929692-1.0595756-2.187492-1.5893555-3.773437-1.5893555zm24.240234.6972657c-.574221-.0957037-1.196285-.1435547-1.866211-.1435547-2.488293 0-4.176753 1.0595597-5.065429 3.1787109V80h-3.793946V57.8105469h3.691407l.061523 2.5634765c1.244147-1.9824317 3.007801-2.9736328 5.291016-2.9736328.738285 0 1.298826.0957022 1.68164.2871094v3.5273438zm16.40625 12.899414c0-1.0253957-.386226-1.8217745-1.158691-2.3891601-.772465-.5673857-2.119131-1.0561503-4.040039-1.4663086-1.920908-.4101583-3.445307-.9023409-4.573242-1.4765625-1.127936-.5742217-1.961912-1.2578086-2.501954-2.0507813-.540041-.7929727-.810058-1.7363226-.810058-2.8300781 0-1.8183685.769035-3.356439 2.307129-4.6142578 1.538093-1.2578188 3.503406-1.8867188 5.895996-1.8867188 2.515637 0 4.556144.6494076 6.121582 1.9482422 1.565437 1.2988346 2.348144 2.9599508 2.348144 4.9833984h-3.814453c0-1.0390676-.440913-1.9345665-1.322754-2.6865234-.88184-.7519569-1.992669-1.1279297-3.332519-1.1279297-1.380866 0-2.460934.3007783-3.240235.9023438-.7793.6015655-1.168945 1.3876904-1.168945 2.3583984 0 .9160202.362301 1.606443 1.086914 2.0712891.724613.464846 2.033682.9091775 3.927246 1.3330078 1.893564.4238302 3.428217.9296845 4.604004 1.5175781 1.175787.5878936 2.047361 1.295406 2.614746 2.1225586.567386.8271526.851075 1.8354433.851075 3.0249023 0 1.9824318-.792961 3.5717714-2.378907 4.7680665-1.585945 1.196295-3.643542 1.7944335-6.172851 1.7944335-1.777353 0-3.349603-.3144499-4.716797-.9433593-1.367194-.6289094-2.437008-1.5073186-3.209473-2.6352539-.772465-1.1279354-1.158691-2.348138-1.158691-3.6606446h3.793945c.06836 1.2714908.577632 2.2797815 1.527832 3.0249024.9502.7451209 2.204582 1.1176758 3.763184 1.1176758 1.435554 0 2.587398-.2905245 3.455566-.8715821.868169-.5810576 1.302246-1.3569287 1.302246-2.3276367zm17.944336 6.2958984c-3.007827 0-5.455069-.987783-7.341797-2.9633789-1.886728-1.9755958-2.830078-4.6176592-2.830078-7.9262695v-.6972656c0-2.2011829.420406-4.1664953 1.261231-5.8959961.840824-1.7295008 2.016594-3.0830029 3.527343-4.0605469 1.51075-.9775439 3.147941-1.4663086 4.911621-1.4663086 2.884781 0 5.126946.9501858 6.726563 2.850586 1.599617 1.9004001 2.399414 4.621076 2.399414 8.1621093v1.5791016h-15.032227c.054688 2.1875109.693842 3.9545831 1.917481 5.3012695 1.223639 1.3466865 2.778799 2.0200196 4.665527 2.0200196 1.339851 0 2.474605-.2734348 3.404297-.8203125.929692-.5468778 1.743161-1.2714799 2.44043-2.1738282l2.317383 1.8046875c-1.859385 2.8574362-4.648419 4.2861328-8.367188 4.2861328zm-.47168-19.8925781c-1.531257 0-2.816401.5571234-3.855468 1.6713867-1.039068 1.1142634-1.68164 2.6762595-1.927735 4.6860352h11.115235v-.2871094c-.109376-1.927744-.628902-3.4213814-1.558594-4.480957-.929692-1.0595756-2.187492-1.5893555-3.773438-1.5893555zm22.41504 16.7958985c1.353522 0 2.536127-.4101522 3.547851-1.2304688s1.572265-1.845697 1.681641-3.0761719h3.588867c-.06836 1.2714908-.505855 2.4814396-1.3125 3.6298829-.806645 1.1484432-1.883294 2.0644497-3.229981 2.7480468-1.346686.6835972-2.771965 1.0253906-4.275878 1.0253906-3.0215 0-5.424308-1.0082906-7.208497-3.0249023-1.784188-2.0166116-2.676269-4.7748848-2.676269-8.2749023v-.6357422c0-2.1601671.39648-4.0810463 1.189453-5.7626953.792973-1.6816491 1.931145-2.9873001 3.414551-3.9169922 1.483406-.9296922 3.236806-1.3945313 5.260254-1.3945313 2.488293 0 4.556144.7451098 6.203613 2.2353516s2.525878 3.4247928 2.635254 5.8037109h-3.588867c-.109376-1.435554-.652827-2.6147415-1.630371-3.5375976-.977544-.9228562-2.184075-1.3842774-3.619629-1.3842774-1.927744 0-3.421382.6938407-4.480957 2.081543-1.059576 1.3877022-1.589356 3.3940298-1.589356 6.019043v.7177734c0 2.5566534.526362 4.5253837 1.579102 5.90625 1.052739 1.3808663 2.556631 2.0712891 4.511719 2.0712891zM521.748047 52.4375v5.3730469h4.142578v2.9326172h-4.142578v13.7607421c0 .8886764.184568 1.5551736.553711 1.9995118.369142.4443381.998042.6665039 1.886719.6665039.437502 0 1.039058-.0820305 1.804687-.2460938V80c-.998052.2734389-1.968745.4101562-2.912109.4101562-1.695321 0-2.973629-.5126901-3.834961-1.5380859-.861333-1.0253957-1.291992-2.4814359-1.291992-4.3681641V60.7431641h-4.04004v-2.9326172h4.04004V52.4375h3.793945zM534.442383 80h-3.793945V57.8105469h3.793945V80zm-4.101563-28.0751953c0-.6152375.187987-1.1347635.563965-1.5585938.375979-.4238302.933102-.6357421 1.671387-.6357421s1.298826.2119119 1.68164.6357421c.382815.4238303.574219.9433563.574219 1.5585938 0 .6152374-.191404 1.1279276-.574219 1.5380859-.382814.4101583-.943355.6152344-1.68164.6152344s-1.295408-.2050761-1.671387-.6152344c-.375978-.4101583-.563965-.9228485-.563965-1.5380859zm9.166992 16.7753906c0-2.173839.427242-4.1288976 1.281739-5.8652344.854496-1.7363368 2.043937-3.0761671 3.568359-4.0195312 1.524422-.9433641 3.264151-1.4150391 5.219238-1.4150391 3.0215 0 5.465323 1.045888 7.331543 3.1376953 1.866221 2.0918074 2.799317 4.8740061 2.799317 8.3466797v.2666016c0 2.160167-.41357 4.0981359-1.240723 5.8139648-.827152 1.7158289-2.009758 3.0522413-3.547851 4.0092774-1.538094.957036-3.305166 1.4355468-5.30127 1.4355468-3.007827 0-5.444815-1.0458879-7.311035-3.1376953-1.86622-2.0918073-2.799317-4.8603343-2.799317-8.305664v-.2666016zm3.814454.4511719c0 2.4609498.570795 4.436516 1.712402 5.9267578 1.141607 1.4902418 2.669424 2.2353516 4.583496 2.2353516 1.927744 0 3.458979-.7553636 4.59375-2.2661133 1.134771-1.5107498 1.702148-3.6264513 1.702148-6.347168 0-2.4336059-.57763-4.4057542-1.73291-5.9165039-1.155279-1.5107497-2.689931-2.2661133-4.604004-2.2661133-1.873056 0-3.383783.7451098-4.532226 2.2353516-1.148443 1.4902418-1.722656 3.623033-1.722656 6.3984375zm24.732422-11.3408203l.123046 2.7890625c1.695321-2.1328232 3.910143-3.1992188 6.644532-3.1992188 4.689476 0 7.054687 2.6454814 7.095703 7.9365235V80h-3.793946V65.3164062c-.013672-1.5996173-.379391-2.7822227-1.097168-3.5478515-.717777-.7656288-1.835441-1.1484375-3.353027-1.1484375-1.230475 0-2.310542.3281217-3.240234.984375-.929692.6562533-1.654295 1.5175728-2.173828 2.5839844V80h-3.793946V57.8105469h3.588868zm53.545898 8.2236328c0 2.9257959-.492183 5.478993-1.476563 7.659668-.984379 2.1806749-2.378897 3.8452091-4.183593 4.9936523-1.804697 1.1484432-3.910145 1.7226562-6.316407 1.7226562-2.351574 0-4.436514-.5776309-6.254882-1.7329101-1.818369-1.1552792-3.229976-2.8027237-4.234864-4.9423828-1.004887-2.1396592-1.520996-4.6176617-1.548339-7.4340821v-2.1533203c0-2.8711081.499018-5.4072155 1.49707-7.6083984.998052-2.2011829 2.409659-3.8862246 4.234863-5.0551758 1.825205-1.1689511 3.913563-1.7534179 6.265137-1.7534179 2.39259 0 4.501456.5776309 6.32666 1.7329101 1.825204 1.1552792 3.229976 2.8300672 4.214355 5.0244141.98438 2.1943469 1.476563 4.747544 1.476563 7.6596679v1.8867188zm-3.916992-1.9277344c0-3.5410333-.710931-6.2582913-2.132813-8.1518555-1.421882-1.8935641-3.41112-2.840332-5.967773-2.840332-2.488294 0-4.44677.9467679-5.875488 2.840332-1.428719 1.8935642-2.163574 4.5219559-2.20459 7.885254v2.1943359c0 3.4316578.721184 6.1284081 2.163574 8.090332 1.44239 1.9619239 3.42821 2.9428711 5.957519 2.9428711 2.542982 0 4.511712-.9262603 5.90625-2.7788086 1.394539-1.8525483 2.112305-4.5082835 2.153321-7.9672851v-2.2148438zm28.013672 5.0449219c0 3.3906419-.779289 6.1147358-2.337891 8.1723633-1.558602 2.0576274-3.650377 3.0864257-6.275391 3.0864257-2.802748 0-4.969719-.991201-6.500976-2.9736328L630.398438 80h-3.486329V48.5h3.793946v11.7509766c1.531257-1.9004002 3.643541-2.850586 6.336914-2.850586 2.693373 0 4.809074 1.0185445 6.347168 3.0556641 1.538093 2.0371195 2.307129 4.8261542 2.307129 8.3671875v.328125zm-3.793946-.4306641c0-2.5839973-.499018-4.5800711-1.49707-5.9882812-.998052-1.4082102-2.433584-2.1123047-4.306641-2.1123047-2.501965 0-4.299799 1.1620977-5.393554 3.4863281v9.5976563c1.162115 2.3242303 2.97362 3.4863281 5.43457 3.4863281 1.818368 0 3.233393-.7040945 4.245117-2.1123047 1.011724-1.4082102 1.517578-3.5273296 1.517578-6.3574219zm21.492188 5.3935547c0-1.0253957-.386227-1.8217745-1.158692-2.3891601-.772464-.5673857-2.119131-1.0561503-4.040039-1.4663086-1.920908-.4101583-3.445307-.9023409-4.573242-1.4765625-1.127935-.5742217-1.961911-1.2578086-2.501953-2.0507813-.540042-.7929727-.810059-1.7363226-.810059-2.8300781 0-1.8183685.769036-3.356439 2.307129-4.6142578 1.538094-1.2578188 3.503406-1.8867188 5.895996-1.8867188 2.515638 0 4.556145.6494076 6.121582 1.9482422 1.565438 1.2988346 2.348145 2.9599508 2.348145 4.9833984h-3.814453c0-1.0390676-.440914-1.9345665-1.322754-2.6865234-.88184-.7519569-1.992669-1.1279297-3.33252-1.1279297-1.380866 0-2.460933.3007783-3.240234.9023438-.779301.6015655-1.168945 1.3876904-1.168945 2.3583984 0 .9160202.362301 1.606443 1.086914 2.0712891.724613.464846 2.033682.9091775 3.927246 1.3330078 1.893564.4238302 3.428217.9296845 4.604004 1.5175781 1.175787.5878936 2.04736 1.295406 2.614746 2.1225586s.851074 1.8354433.851074 3.0249023c0 1.9824318-.792961 3.5717714-2.378906 4.7680665-1.585946 1.196295-3.643542 1.7944335-6.172852 1.7944335-1.777352 0-3.349602-.3144499-4.716797-.9433593-1.367194-.6289094-2.437007-1.5073186-3.209472-2.6352539-.772465-1.1279354-1.158692-2.348138-1.158692-3.6606446h3.793946c.068359 1.2714908.577632 2.2797815 1.527832 3.0249024.9502.7451209 2.204582 1.1176758 3.763183 1.1176758 1.435554 0 2.587398-.2905245 3.455567-.8715821.868168-.5810576 1.302246-1.3569287 1.302246-2.3276367zm17.944336 6.2958984c-3.007828 0-5.455069-.987783-7.341797-2.9633789-1.886728-1.9755958-2.830078-4.6176592-2.830078-7.9262695v-.6972656c0-2.2011829.420406-4.1664953 1.26123-5.8959961.840825-1.7295008 2.016594-3.0830029 3.527344-4.0605469 1.51075-.9775439 3.14794-1.4663086 4.911621-1.4663086 2.88478 0 5.126945.9501858 6.726563 2.850586 1.599617 1.9004001 2.399414 4.621076 2.399414 8.1621093v1.5791016h-15.032227c.054688 2.1875109.693842 3.9545831 1.917481 5.3012695 1.223638 1.3466865 2.778799 2.0200196 4.665527 2.0200196 1.33985 0 2.474605-.2734348 3.404297-.8203125.929692-.5468778 1.74316-1.2714799 2.440429-2.1738282l2.317383 1.8046875c-1.859384 2.8574362-4.648419 4.2861328-8.367187 4.2861328zm-.47168-19.8925781c-1.531258 0-2.816401.5571234-3.855469 1.6713867-1.039067 1.1142634-1.681639 2.6762595-1.927734 4.6860352h11.115234v-.2871094c-.109375-1.927744-.628901-3.4213814-1.558593-4.480957-.929693-1.0595756-2.187493-1.5893555-3.773438-1.5893555zm24.240234.6972657c-.574221-.0957037-1.196285-.1435547-1.86621-.1435547-2.488294 0-4.176754 1.0595597-5.06543 3.1787109V80h-3.793946V57.8105469h3.691407l.061523 2.5634765c1.244147-1.9824317 3.007801-2.9736328 5.291016-2.9736328.738285 0 1.298826.0957022 1.68164.2871094v3.5273438zm11.176758 13.6376953l5.496094-17.0419922h3.875977L717.700195 80h-2.891601l-8.039063-22.1894531h3.875977l5.639648 17.0419922zm21.963867 5.5576171c-3.007827 0-5.455068-.987783-7.341796-2.9633789-1.886729-1.9755958-2.830079-4.6176592-2.830079-7.9262695v-.6972656c0-2.2011829.420406-4.1664953 1.261231-5.8959961.840824-1.7295008 2.016594-3.0830029 3.527344-4.0605469 1.510749-.9775439 3.14794-1.4663086 4.911621-1.4663086 2.88478 0 5.126945.9501858 6.726562 2.850586 1.599618 1.9004001 2.399414 4.621076 2.399414 8.1621093v1.5791016h-15.032226c.054688 2.1875109.693841 3.9545831 1.91748 5.3012695 1.223639 1.3466865 2.778799 2.0200196 4.665528 2.0200196 1.33985 0 2.474604-.2734348 3.404296-.8203125.929693-.5468778 1.743161-1.2714799 2.44043-2.1738282l2.317383 1.8046875c-1.859384 2.8574362-4.648419 4.2861328-8.367188 4.2861328zm-.471679-19.8925781c-1.531258 0-2.816401.5571234-3.855469 1.6713867-1.039068 1.1142634-1.681639 2.6762595-1.927734 4.6860352h11.115234v-.2871094c-.109376-1.927744-.628902-3.4213814-1.558594-4.480957-.929692-1.0595756-2.187492-1.5893555-3.773437-1.5893555zm24.240234.6972657c-.574221-.0957037-1.196286-.1435547-1.866211-.1435547-2.488294 0-4.176753 1.0595597-5.065429 3.1787109V80h-3.793946V57.8105469h3.691406l.061524 2.5634765c1.244147-1.9824317 3.007801-2.9736328 5.291016-2.9736328.738284 0 1.298826.0957022 1.68164.2871094v3.5273438z" fill="#111"/>
    <path d="M161.986328 76.4667969h-6.068359V90h-7.617188V53.03125h13.736328c4.36721 0 7.735666.9732976 10.105469 2.9199219 2.369804 1.9466243 3.554688 4.6972478 3.554688 8.2519531 0 2.522148-.545893 4.6253171-1.637696 6.3095703-1.091802 1.6842532-2.746408 3.0257112-4.963867 4.0244141l7.998047 15.1074218V90h-8.175781l-6.931641-13.5332031zm-6.068359-6.1699219h6.144531c1.91277 0 3.393875-.4866488 4.443359-1.4599609 1.049485-.9733122 1.574219-2.3147701 1.574219-4.0244141 0-1.7434983-.495112-3.1145783-1.485351-4.1132812-.99024-.998703-2.50943-1.4980469-4.557618-1.4980469h-6.11914V70.296875zm23.943359 5.7128906c0-2.725274.524734-5.1542862 1.574219-7.2871094 1.049484-2.1328231 2.560211-3.7831972 4.532226-4.9511718 1.972016-1.1679746 4.261381-1.7519532 6.868165-1.7519532 3.707049 0 6.732735 1.1341033 9.077148 3.4023438 2.344413 2.2682405 3.652017 5.3489389 3.922852 9.2421875l.050781 1.8789063c0 4.2148648-1.176421 7.5960159-3.529297 10.1435546-2.352876 2.5475388-5.509746 3.8212891-9.470703 3.8212891-3.960958 0-7.122059-1.2695186-9.483399-3.8085937-2.36134-2.5390752-3.541992-5.9921657-3.541992-10.359375v-.3300782zm7.337891.5332032c0 2.6067838.49088 4.5999279 1.472656 5.9794921s2.38671 2.069336 4.214844 2.069336c1.777352 0 3.165359-.6813083 4.164062-2.0439453.998703-1.3626371 1.498047-3.5419772 1.498047-6.538086 0-2.5560023-.499344-4.5364513-1.498047-5.9414062-.998703-1.404955-2.403637-2.1074219-4.214843-2.1074219-1.79428 0-3.182287.6982352-4.164063 2.0947266-.981776 1.3964913-1.472656 3.5589046-1.472656 6.4873047zM197.046875 35.609375h1.085937c.682296-.0104167 1.218749-.1901024 1.609376-.5390625.390626-.3489601.585937-.8203095.585937-1.4140625 0-1.33334-.664056-2-1.992187-2-.625004 0-1.123697.1783836-1.496094.5351562-.372398.3567727-.558594.8294242-.558594 1.4179688h-1.445312c0-.9010462.329423-1.6497366.988281-2.2460938.658857-.5963571 1.496088-.8945312 2.511719-.8945312 1.072922 0 1.914059.2838513 2.523437.8515625s.914063 1.3567658.914063 2.3671875c0 .4947941-.160155.973956-.480469 1.4375-.320314.463544-.756508.8098947-1.308594 1.0390625.625003.1979177 1.108071.5260394 1.449219.984375.341147.4583356.511718 1.0182259.511718 1.6796875 0 1.0208384-.333329 1.8307262-1 2.4296875-.66667.5989613-1.533848.8984375-2.601562.8984375-1.067714 0-1.936195-.2890596-2.605469-.8671875-.669274-.5781279-1.003906-1.3411411-1.003906-2.2890625h1.453125c0 .5989613.195311 1.0781232.585938 1.4375.390626.3593768.914059.5390625 1.570312.5390625.69792 0 1.231769-.1822898 1.601562-.546875.369794-.3645852.554688-.8880174.554688-1.5703125 0-.6614616-.203123-1.1692691-.609375-1.5234375-.406252-.3541684-.992184-.5364583-1.757813-.546875h-1.085937V35.609375zm8.984375 0h1.085938c.682295-.0104167 1.218748-.1901024 1.609374-.5390625.390627-.3489601.585938-.8203095.585938-1.4140625 0-1.33334-.664056-2-1.992188-2-.625003 0-1.123696.1783836-1.496093.5351562-.372398.3567727-.558594.8294242-.558594 1.4179688h-1.445313c0-.9010462.329424-1.6497366.988282-2.2460938.658857-.5963571 1.496088-.8945312 2.511718-.8945312 1.072923 0 1.91406.2838513 2.523438.8515625s.914062 1.3567658.914062 2.3671875c0 .4947941-.160154.973956-.480468 1.4375-.320314.463544-.756508.8098947-1.308594 1.0390625.625003.1979177 1.108071.5260394 1.449219.984375.341147.4583356.511719 1.0182259.511719 1.6796875 0 1.0208384-.33333 1.8307262-1 2.4296875-.666671.5989613-1.533849.8984375-2.601563.8984375s-1.936195-.2890596-2.605469-.8671875c-.669274-.5781279-1.003906-1.3411411-1.003906-2.2890625h1.453125c0 .5989613.195311 1.0781232.585937 1.4375.390627.3593768.91406.5390625 1.570313.5390625.69792 0 1.231769-.1822898 1.601563-.546875.369793-.3645852.554687-.8880174.554687-1.5703125 0-.6614616-.203123-1.1692691-.609375-1.5234375-.406252-.3541684-.992184-.5364583-1.757812-.546875h-1.085938V35.609375z" fill="#FFF"/>
  </g>
</svg>
